<svg xmlns="http://www.w3.org/2000/svg" version="1.1" xmlns:xlink="http://www.w3.org/1999/xlink" xmlns:svgjs="http://svgjs.dev/svgjs" width="1440" height="560" preserveAspectRatio="none" viewBox="0 0 1440 560"><g mask="url(&quot;#SvgjsMask1021&quot;)" fill="none"><rect width="1440" height="560" x="0" y="0" fill="rgba(255, 255, 255, 1)"></rect><path d="M197.49 391.99L262.44 429.49L262.44 504.49L197.49 541.99L132.53 504.49L132.53 429.49zM327.39 166.99L392.35 204.49L392.35 279.49L327.39 316.99L262.44 279.49L262.44 204.49zM457.3 166.99L522.26 204.49L522.26 279.49L457.3 316.99L392.35 279.49L392.35 204.49zM652.16 54.49L717.12 91.99L717.12 166.99L652.16 204.49L587.21 166.99L587.21 91.99zM587.21 166.99L652.16 204.49L652.16 279.49L587.21 316.99L522.26 279.49L522.26 204.49zM652.16 279.49L717.12 316.99L717.12 391.99L652.16 429.49L587.21 391.99L587.21 316.99zM587.21 391.99L652.16 429.49L652.16 504.49L587.21 541.99L522.26 504.49L522.26 429.49zM976.93 166.99L1041.89 204.49L1041.89 279.49L976.93 316.99L911.98 279.49L911.98 204.49zM1041.89 279.49L1106.84 316.99L1106.84 391.99L1041.89 429.49L976.93 391.99L976.93 316.99zM1171.79 54.49L1236.75 91.99L1236.75 166.99L1171.79 204.49L1106.84 166.99L1106.84 91.99zM1106.84 166.99L1171.79 204.49L1171.79 279.49L1106.84 316.99L1041.89 279.49L1041.89 204.49zM1171.79 504.49L1236.75 541.99L1236.75 616.99L1171.79 654.49L1106.84 616.99L1106.84 541.99zM1236.75 -58.01L1301.7 -20.51L1301.7 54.49L1236.75 91.99L1171.79 54.49L1171.79 -20.51zM1236.75 391.99L1301.7 429.49L1301.7 504.49L1236.75 541.99L1171.79 504.49L1171.79 429.49zM1431.61 54.49L1496.56 91.99L1496.56 166.99L1431.61 204.49L1366.65 166.99L1366.65 91.99zM1431.61 504.49L1496.56 541.99L1496.56 616.99L1431.61 654.49L1366.65 616.99L1366.65 541.99zM1496.56 166.99L1561.52 204.49L1561.52 279.49L1496.56 316.99L1431.61 279.49L1431.61 204.49zM1561.52 279.49L1626.47 316.99L1626.47 391.99L1561.52 429.49L1496.56 391.99L1496.56 316.99zM1496.56 391.99L1561.52 429.49L1561.52 504.49L1496.56 541.99L1431.61 504.49L1431.61 429.49zM1561.52 504.49L1626.47 541.99L1626.47 616.99L1561.52 654.49L1496.56 616.99L1496.56 541.99z" stroke="rgba(248, 248, 248, 1)" stroke-width="2"></path><path d="M189.99 391.99 a7.5 7.5 0 1 0 15 0 a7.5 7.5 0 1 0 -15 0zM254.94 429.49 a7.5 7.5 0 1 0 15 0 a7.5 7.5 0 1 0 -15 0zM254.94 504.49 a7.5 7.5 0 1 0 15 0 a7.5 7.5 0 1 0 -15 0zM189.99 541.99 a7.5 7.5 0 1 0 15 0 a7.5 7.5 0 1 0 -15 0zM125.03 504.49 a7.5 7.5 0 1 0 15 0 a7.5 7.5 0 1 0 -15 0zM125.03 429.49 a7.5 7.5 0 1 0 15 0 a7.5 7.5 0 1 0 -15 0zM319.89 166.99 a7.5 7.5 0 1 0 15 0 a7.5 7.5 0 1 0 -15 0zM384.85 204.49 a7.5 7.5 0 1 0 15 0 a7.5 7.5 0 1 0 -15 0zM384.85 279.49 a7.5 7.5 0 1 0 15 0 a7.5 7.5 0 1 0 -15 0zM319.89 316.99 a7.5 7.5 0 1 0 15 0 a7.5 7.5 0 1 0 -15 0zM254.94 279.49 a7.5 7.5 0 1 0 15 0 a7.5 7.5 0 1 0 -15 0zM254.94 204.49 a7.5 7.5 0 1 0 15 0 a7.5 7.5 0 1 0 -15 0zM449.8 166.99 a7.5 7.5 0 1 0 15 0 a7.5 7.5 0 1 0 -15 0zM514.76 204.49 a7.5 7.5 0 1 0 15 0 a7.5 7.5 0 1 0 -15 0zM514.76 279.49 a7.5 7.5 0 1 0 15 0 a7.5 7.5 0 1 0 -15 0zM449.8 316.99 a7.5 7.5 0 1 0 15 0 a7.5 7.5 0 1 0 -15 0zM644.66 54.49 a7.5 7.5 0 1 0 15 0 a7.5 7.5 0 1 0 -15 0zM709.62 91.99 a7.5 7.5 0 1 0 15 0 a7.5 7.5 0 1 0 -15 0zM709.62 166.99 a7.5 7.5 0 1 0 15 0 a7.5 7.5 0 1 0 -15 0zM644.66 204.49 a7.5 7.5 0 1 0 15 0 a7.5 7.5 0 1 0 -15 0zM579.71 166.99 a7.5 7.5 0 1 0 15 0 a7.5 7.5 0 1 0 -15 0zM579.71 91.99 a7.5 7.5 0 1 0 15 0 a7.5 7.5 0 1 0 -15 0zM644.66 279.49 a7.5 7.5 0 1 0 15 0 a7.5 7.5 0 1 0 -15 0zM579.71 316.99 a7.5 7.5 0 1 0 15 0 a7.5 7.5 0 1 0 -15 0zM709.62 316.99 a7.5 7.5 0 1 0 15 0 a7.5 7.5 0 1 0 -15 0zM709.62 391.99 a7.5 7.5 0 1 0 15 0 a7.5 7.5 0 1 0 -15 0zM644.66 429.49 a7.5 7.5 0 1 0 15 0 a7.5 7.5 0 1 0 -15 0zM579.71 391.99 a7.5 7.5 0 1 0 15 0 a7.5 7.5 0 1 0 -15 0zM644.66 504.49 a7.5 7.5 0 1 0 15 0 a7.5 7.5 0 1 0 -15 0zM579.71 541.99 a7.5 7.5 0 1 0 15 0 a7.5 7.5 0 1 0 -15 0zM514.76 504.49 a7.5 7.5 0 1 0 15 0 a7.5 7.5 0 1 0 -15 0zM514.76 429.49 a7.5 7.5 0 1 0 15 0 a7.5 7.5 0 1 0 -15 0zM969.43 166.99 a7.5 7.5 0 1 0 15 0 a7.5 7.5 0 1 0 -15 0zM1034.39 204.49 a7.5 7.5 0 1 0 15 0 a7.5 7.5 0 1 0 -15 0zM1034.39 279.49 a7.5 7.5 0 1 0 15 0 a7.5 7.5 0 1 0 -15 0zM969.43 316.99 a7.5 7.5 0 1 0 15 0 a7.5 7.5 0 1 0 -15 0zM904.48 279.49 a7.5 7.5 0 1 0 15 0 a7.5 7.5 0 1 0 -15 0zM904.48 204.49 a7.5 7.5 0 1 0 15 0 a7.5 7.5 0 1 0 -15 0zM1099.34 316.99 a7.5 7.5 0 1 0 15 0 a7.5 7.5 0 1 0 -15 0zM1099.34 391.99 a7.5 7.5 0 1 0 15 0 a7.5 7.5 0 1 0 -15 0zM1034.39 429.49 a7.5 7.5 0 1 0 15 0 a7.5 7.5 0 1 0 -15 0zM969.43 391.99 a7.5 7.5 0 1 0 15 0 a7.5 7.5 0 1 0 -15 0zM1164.29 54.49 a7.5 7.5 0 1 0 15 0 a7.5 7.5 0 1 0 -15 0zM1229.25 91.99 a7.5 7.5 0 1 0 15 0 a7.5 7.5 0 1 0 -15 0zM1229.25 166.99 a7.5 7.5 0 1 0 15 0 a7.5 7.5 0 1 0 -15 0zM1164.29 204.49 a7.5 7.5 0 1 0 15 0 a7.5 7.5 0 1 0 -15 0zM1099.34 166.99 a7.5 7.5 0 1 0 15 0 a7.5 7.5 0 1 0 -15 0zM1099.34 91.99 a7.5 7.5 0 1 0 15 0 a7.5 7.5 0 1 0 -15 0zM1164.29 279.49 a7.5 7.5 0 1 0 15 0 a7.5 7.5 0 1 0 -15 0zM1164.29 504.49 a7.5 7.5 0 1 0 15 0 a7.5 7.5 0 1 0 -15 0zM1229.25 541.99 a7.5 7.5 0 1 0 15 0 a7.5 7.5 0 1 0 -15 0zM1229.25 616.99 a7.5 7.5 0 1 0 15 0 a7.5 7.5 0 1 0 -15 0zM1164.29 654.49 a7.5 7.5 0 1 0 15 0 a7.5 7.5 0 1 0 -15 0zM1099.34 616.99 a7.5 7.5 0 1 0 15 0 a7.5 7.5 0 1 0 -15 0zM1099.34 541.99 a7.5 7.5 0 1 0 15 0 a7.5 7.5 0 1 0 -15 0zM1229.25 -58.01 a7.5 7.5 0 1 0 15 0 a7.5 7.5 0 1 0 -15 0zM1294.2 -20.51 a7.5 7.5 0 1 0 15 0 a7.5 7.5 0 1 0 -15 0zM1294.2 54.49 a7.5 7.5 0 1 0 15 0 a7.5 7.5 0 1 0 -15 0zM1164.29 -20.51 a7.5 7.5 0 1 0 15 0 a7.5 7.5 0 1 0 -15 0zM1229.25 391.99 a7.5 7.5 0 1 0 15 0 a7.5 7.5 0 1 0 -15 0zM1294.2 429.49 a7.5 7.5 0 1 0 15 0 a7.5 7.5 0 1 0 -15 0zM1294.2 504.49 a7.5 7.5 0 1 0 15 0 a7.5 7.5 0 1 0 -15 0zM1164.29 429.49 a7.5 7.5 0 1 0 15 0 a7.5 7.5 0 1 0 -15 0zM1424.11 54.49 a7.5 7.5 0 1 0 15 0 a7.5 7.5 0 1 0 -15 0zM1489.06 91.99 a7.5 7.5 0 1 0 15 0 a7.5 7.5 0 1 0 -15 0zM1489.06 166.99 a7.5 7.5 0 1 0 15 0 a7.5 7.5 0 1 0 -15 0zM1424.11 204.49 a7.5 7.5 0 1 0 15 0 a7.5 7.5 0 1 0 -15 0zM1359.15 166.99 a7.5 7.5 0 1 0 15 0 a7.5 7.5 0 1 0 -15 0zM1359.15 91.99 a7.5 7.5 0 1 0 15 0 a7.5 7.5 0 1 0 -15 0zM1424.11 504.49 a7.5 7.5 0 1 0 15 0 a7.5 7.5 0 1 0 -15 0zM1489.06 541.99 a7.5 7.5 0 1 0 15 0 a7.5 7.5 0 1 0 -15 0zM1489.06 616.99 a7.5 7.5 0 1 0 15 0 a7.5 7.5 0 1 0 -15 0zM1424.11 654.49 a7.5 7.5 0 1 0 15 0 a7.5 7.5 0 1 0 -15 0zM1359.15 616.99 a7.5 7.5 0 1 0 15 0 a7.5 7.5 0 1 0 -15 0zM1359.15 541.99 a7.5 7.5 0 1 0 15 0 a7.5 7.5 0 1 0 -15 0zM1554.02 204.49 a7.5 7.5 0 1 0 15 0 a7.5 7.5 0 1 0 -15 0zM1554.02 279.49 a7.5 7.5 0 1 0 15 0 a7.5 7.5 0 1 0 -15 0zM1489.06 316.99 a7.5 7.5 0 1 0 15 0 a7.5 7.5 0 1 0 -15 0zM1424.11 279.49 a7.5 7.5 0 1 0 15 0 a7.5 7.5 0 1 0 -15 0zM1618.97 316.99 a7.5 7.5 0 1 0 15 0 a7.5 7.5 0 1 0 -15 0zM1618.97 391.99 a7.5 7.5 0 1 0 15 0 a7.5 7.5 0 1 0 -15 0zM1554.02 429.49 a7.5 7.5 0 1 0 15 0 a7.5 7.5 0 1 0 -15 0zM1489.06 391.99 a7.5 7.5 0 1 0 15 0 a7.5 7.5 0 1 0 -15 0zM1554.02 504.49 a7.5 7.5 0 1 0 15 0 a7.5 7.5 0 1 0 -15 0zM1424.11 429.49 a7.5 7.5 0 1 0 15 0 a7.5 7.5 0 1 0 -15 0zM1618.97 541.99 a7.5 7.5 0 1 0 15 0 a7.5 7.5 0 1 0 -15 0zM1618.97 616.99 a7.5 7.5 0 1 0 15 0 a7.5 7.5 0 1 0 -15 0zM1554.02 654.49 a7.5 7.5 0 1 0 15 0 a7.5 7.5 0 1 0 -15 0z" fill="rgba(248, 248, 248, 1)"></path><path d="M3.41 112.78L36.32 131.78L36.32 169.78L3.41 188.78L-29.5 169.78L-29.5 131.78zM36.32 169.78L69.23 188.78L69.23 226.78L36.32 245.78L3.41 226.78L3.41 188.78zM36.32 397.78L69.23 416.78L69.23 454.78L36.32 473.78L3.41 454.78L3.41 416.78zM69.23 112.78L102.14 131.78L102.14 169.78L69.23 188.78L36.32 169.78L36.32 131.78zM69.23 226.78L102.14 245.78L102.14 283.78L69.23 302.78L36.32 283.78L36.32 245.78zM102.14 397.78L135.05 416.78L135.05 454.78L102.14 473.78L69.23 454.78L69.23 416.78zM69.23 454.78L102.14 473.78L102.14 511.78L69.23 530.78L36.32 511.78L36.32 473.78zM69.23 568.78L102.14 587.78L102.14 625.78L69.23 644.78L36.32 625.78L36.32 587.78zM135.05 112.78L167.96 131.78L167.96 169.78L135.05 188.78L102.14 169.78L102.14 131.78zM167.96 169.78L200.87 188.78L200.87 226.78L167.96 245.78L135.05 226.78L135.05 188.78zM135.05 226.78L167.96 245.78L167.96 283.78L135.05 302.78L102.14 283.78L102.14 245.78zM135.05 454.78L167.96 473.78L167.96 511.78L135.05 530.78L102.14 511.78L102.14 473.78zM167.96 511.78L200.87 530.78L200.87 568.78L167.96 587.78L135.05 568.78L135.05 530.78zM135.05 568.78L167.96 587.78L167.96 625.78L135.05 644.78L102.14 625.78L102.14 587.78zM233.78 55.78L266.69 74.78L266.69 112.78L233.78 131.78L200.87 112.78L200.87 74.78zM200.87 112.78L233.78 131.78L233.78 169.78L200.87 188.78L167.96 169.78L167.96 131.78zM200.87 340.78L233.78 359.78L233.78 397.78L200.87 416.78L167.96 397.78L167.96 359.78zM233.78 397.78L266.69 416.78L266.69 454.78L233.78 473.78L200.87 454.78L200.87 416.78zM200.87 454.78L233.78 473.78L233.78 511.78L200.87 530.78L167.96 511.78L167.96 473.78zM266.69 226.78L299.6 245.78L299.6 283.78L266.69 302.78L233.78 283.78L233.78 245.78zM299.6 397.78L332.51 416.78L332.51 454.78L299.6 473.78L266.69 454.78L266.69 416.78zM299.6 511.78L332.51 530.78L332.51 568.78L299.6 587.78L266.69 568.78L266.69 530.78zM332.51 -1.22L365.42 17.78L365.42 55.78L332.51 74.78L299.6 55.78L299.6 17.78zM332.51 226.78L365.42 245.78L365.42 283.78L332.51 302.78L299.6 283.78L299.6 245.78zM365.42 511.78L398.33 530.78L398.33 568.78L365.42 587.78L332.51 568.78L332.51 530.78zM332.51 568.78L365.42 587.78L365.42 625.78L332.51 644.78L299.6 625.78L299.6 587.78zM431.24 55.78L464.15 74.78L464.15 112.78L431.24 131.78L398.33 112.78L398.33 74.78zM497.06 55.78L529.97 74.78L529.97 112.78L497.06 131.78L464.15 112.78L464.15 74.78zM497.06 169.78L529.97 188.78L529.97 226.78L497.06 245.78L464.15 226.78L464.15 188.78zM464.15 226.78L497.06 245.78L497.06 283.78L464.15 302.78L431.24 283.78L431.24 245.78zM497.06 397.78L529.97 416.78L529.97 454.78L497.06 473.78L464.15 454.78L464.15 416.78zM529.97 112.78L562.88 131.78L562.88 169.78L529.97 188.78L497.06 169.78L497.06 131.78zM562.88 169.78L595.79 188.78L595.79 226.78L562.88 245.78L529.97 226.78L529.97 188.78zM562.88 283.78L595.79 302.78L595.79 340.78L562.88 359.78L529.97 340.78L529.97 302.78zM595.79 -1.22L628.7 17.78L628.7 55.78L595.79 74.78L562.88 55.78L562.88 17.78zM628.7 55.78L661.61 74.78L661.61 112.78L628.7 131.78L595.79 112.78L595.79 74.78zM595.79 112.78L628.7 131.78L628.7 169.78L595.79 188.78L562.88 169.78L562.88 131.78zM628.7 169.78L661.61 188.78L661.61 226.78L628.7 245.78L595.79 226.78L595.79 188.78zM595.79 226.78L628.7 245.78L628.7 283.78L595.79 302.78L562.88 283.78L562.88 245.78zM595.79 454.78L628.7 473.78L628.7 511.78L595.79 530.78L562.88 511.78L562.88 473.78zM694.52 55.78L727.43 74.78L727.43 112.78L694.52 131.78L661.61 112.78L661.61 74.78zM694.52 283.78L727.43 302.78L727.43 340.78L694.52 359.78L661.61 340.78L661.61 302.78zM694.52 511.78L727.43 530.78L727.43 568.78L694.52 587.78L661.61 568.78L661.61 530.78zM661.61 568.78L694.52 587.78L694.52 625.78L661.61 644.78L628.7 625.78L628.7 587.78zM760.34 55.78L793.25 74.78L793.25 112.78L760.34 131.78L727.43 112.78L727.43 74.78zM727.43 226.78L760.34 245.78L760.34 283.78L727.43 302.78L694.52 283.78L694.52 245.78zM727.43 340.78L760.34 359.78L760.34 397.78L727.43 416.78L694.52 397.78L694.52 359.78zM760.34 511.78L793.25 530.78L793.25 568.78L760.34 587.78L727.43 568.78L727.43 530.78zM826.16 55.78L859.07 74.78L859.07 112.78L826.16 131.78L793.25 112.78L793.25 74.78zM793.25 112.78L826.16 131.78L826.16 169.78L793.25 188.78L760.34 169.78L760.34 131.78zM826.16 169.78L859.07 188.78L859.07 226.78L826.16 245.78L793.25 226.78L793.25 188.78zM826.16 283.78L859.07 302.78L859.07 340.78L826.16 359.78L793.25 340.78L793.25 302.78zM793.25 340.78L826.16 359.78L826.16 397.78L793.25 416.78L760.34 397.78L760.34 359.78zM793.25 454.78L826.16 473.78L826.16 511.78L793.25 530.78L760.34 511.78L760.34 473.78zM859.07 -1.22L891.98 17.78L891.98 55.78L859.07 74.78L826.16 55.78L826.16 17.78zM891.98 169.78L924.89 188.78L924.89 226.78L891.98 245.78L859.07 226.78L859.07 188.78zM859.07 568.78L891.98 587.78L891.98 625.78L859.07 644.78L826.16 625.78L826.16 587.78zM957.8 55.78L990.71 74.78L990.71 112.78L957.8 131.78L924.89 112.78L924.89 74.78zM924.89 112.78L957.8 131.78L957.8 169.78L924.89 188.78L891.98 169.78L891.98 131.78zM957.8 283.78L990.71 302.78L990.71 340.78L957.8 359.78L924.89 340.78L924.89 302.78zM990.71 112.78L1023.62 131.78L1023.62 169.78L990.71 188.78L957.8 169.78L957.8 131.78zM1023.62 169.78L1056.53 188.78L1056.53 226.78L1023.62 245.78L990.71 226.78L990.71 188.78zM990.71 226.78L1023.62 245.78L1023.62 283.78L990.71 302.78L957.8 283.78L957.8 245.78zM990.71 340.78L1023.62 359.78L1023.62 397.78L990.71 416.78L957.8 397.78L957.8 359.78zM990.71 454.78L1023.62 473.78L1023.62 511.78L990.71 530.78L957.8 511.78L957.8 473.78zM1023.62 511.78L1056.53 530.78L1056.53 568.78L1023.62 587.78L990.71 568.78L990.71 530.78zM1056.53 -1.22L1089.44 17.78L1089.44 55.78L1056.53 74.78L1023.62 55.78L1023.62 17.78zM1056.53 226.78L1089.44 245.78L1089.44 283.78L1056.53 302.78L1023.62 283.78L1023.62 245.78zM1089.44 397.78L1122.35 416.78L1122.35 454.78L1089.44 473.78L1056.53 454.78L1056.53 416.78zM1056.53 454.78L1089.44 473.78L1089.44 511.78L1056.53 530.78L1023.62 511.78L1023.62 473.78zM1089.44 511.78L1122.35 530.78L1122.35 568.78L1089.44 587.78L1056.53 568.78L1056.53 530.78zM1056.53 568.78L1089.44 587.78L1089.44 625.78L1056.53 644.78L1023.62 625.78L1023.62 587.78zM1155.26 283.78L1188.17 302.78L1188.17 340.78L1155.26 359.78L1122.35 340.78L1122.35 302.78zM1188.17 -1.22L1221.08 17.78L1221.08 55.78L1188.17 74.78L1155.26 55.78L1155.26 17.78zM1253.99 112.78L1286.9 131.78L1286.9 169.78L1253.99 188.78L1221.08 169.78L1221.08 131.78zM1286.9 169.78L1319.81 188.78L1319.81 226.78L1286.9 245.78L1253.99 226.78L1253.99 188.78zM1286.9 283.78L1319.81 302.78L1319.81 340.78L1286.9 359.78L1253.99 340.78L1253.99 302.78zM1253.99 340.78L1286.9 359.78L1286.9 397.78L1253.99 416.78L1221.08 397.78L1221.08 359.78zM1286.9 511.78L1319.81 530.78L1319.81 568.78L1286.9 587.78L1253.99 568.78L1253.99 530.78zM1253.99 568.78L1286.9 587.78L1286.9 625.78L1253.99 644.78L1221.08 625.78L1221.08 587.78zM1352.72 55.78L1385.63 74.78L1385.63 112.78L1352.72 131.78L1319.81 112.78L1319.81 74.78zM1385.63 112.78L1418.54 131.78L1418.54 169.78L1385.63 188.78L1352.72 169.78L1352.72 131.78zM1418.54 169.78L1451.45 188.78L1451.45 226.78L1418.54 245.78L1385.63 226.78L1385.63 188.78zM1418.54 511.78L1451.45 530.78L1451.45 568.78L1418.54 587.78L1385.63 568.78L1385.63 530.78z" stroke="rgba(250, 250, 250, 1)" stroke-width="2"></path></g><defs><mask id="SvgjsMask1021"><rect width="1440" height="560" fill="#ffffff"></rect></mask></defs></svg>